<svg width="125" height="145" viewBox="0 0 125 145" fill="none" xmlns="http://www.w3.org/2000/svg">
<path d="M119.688 60.7114H115.487C115.508 60.5103 115.519 60.3067 115.519 60.102C115.519 58.2003 114.592 56.4896 113.098 55.4565C113.059 51.5402 110.4 48.2412 106.794 47.2254C106.947 45.7647 107.028 44.2877 107.028 42.7971C107.028 31.7264 102.743 21.2925 94.9616 13.4186C87.1877 5.55144 76.8197 1.14193 65.7677 1.00256C65.6895 1.00144 65.6119 1.00451 65.5337 1.00368C65.5292 1.00368 65.525 1.00312 65.5206 1.00312C65.3128 0.997811 65.1047 0.999766 64.8972 1.00731C56.8093 1.06708 48.9768 3.49331 42.181 8.03996C36.3314 11.9532 31.5987 17.1936 28.329 23.3238C26.8027 21.9709 24.7971 21.1476 22.6018 21.1476C19.6829 21.1476 16.9964 22.6189 15.4108 24.9946C10.7421 25.1088 6.97999 28.9419 6.97999 33.6371C6.97999 34.0817 7.01406 34.5233 7.08109 34.9584H5.80108C3.15365 34.9584 1 37.1121 1 39.7595C1 42.4067 3.15365 44.5603 5.80108 44.5603H23.4721C23.9821 56.9219 29.8322 68.2675 39.6952 75.888C43.7503 79.0215 46.622 83.5919 47.7808 88.7591L49.4605 96.2462C49.8577 98.0169 51.0947 99.3947 52.6998 100.011L54.6948 117.153H52.9302C49.9943 117.153 47.6052 119.542 47.6052 122.478C47.6052 124.757 49.0466 126.7 51.0628 127.459L52.0823 138.766C52.3518 141.75 54.8138 144.001 57.81 144.001H72.6501C75.6461 144.001 78.1084 141.75 78.3779 138.766L79.3878 127.564C81.556 126.89 83.1346 124.865 83.1346 122.478C83.1346 119.542 80.7458 117.153 77.8095 117.153H76.0449L78.0539 99.8921C79.5158 99.2265 80.6271 97.9085 80.9999 96.2464L82.6793 88.7588C83.8359 83.6036 86.7235 79.0198 90.8107 75.8531C92.9742 74.1768 94.9409 72.3192 96.703 70.3139H119.688C122.335 70.3139 124.489 68.1602 124.489 65.5128C124.489 62.8653 122.335 60.7114 119.688 60.7114ZM5.80108 40.3684C5.46509 40.3684 5.19166 40.095 5.19166 39.7592C5.19166 39.4233 5.46509 39.1498 5.80108 39.1498H10.0374C10.796 39.1498 11.4954 38.7398 11.866 38.0782C12.2366 37.4165 12.221 36.6057 11.8244 35.9592C11.3973 35.262 11.1717 34.4591 11.1717 33.6368C11.1717 31.181 13.1695 29.1832 15.6253 29.1832C15.8468 29.1832 16.0722 29.2002 16.2948 29.2334C17.2293 29.3737 18.1426 28.8692 18.5233 28.004C19.2346 26.3852 20.8355 25.3392 22.6018 25.3392C25.0574 25.3392 27.0552 27.337 27.0552 29.7929C27.0552 30.0498 27.0314 30.314 26.9848 30.5774C26.7996 31.622 27.4238 32.6403 28.4391 32.9484C29.0496 33.1338 29.4758 33.7097 29.4758 34.349C29.4758 34.7766 29.2884 35.1822 28.9614 35.4617C28.295 36.0323 28.0542 36.9576 28.3584 37.7804C28.6625 38.6032 29.4471 39.1498 30.3243 39.1498H37.8363C38.1722 39.1498 38.4457 39.4233 38.4457 39.7592C38.4457 40.0952 38.172 40.3684 37.8363 40.3684H5.80108ZM54.6071 96.1741C54.0968 96.1744 53.662 95.8264 53.5505 95.3281L51.8708 87.841C50.4984 81.7231 47.0845 76.3 42.258 72.5709C33.4301 65.7494 28.1751 55.6132 27.6679 44.5598H37.8357C40.4831 44.5598 42.6368 42.4061 42.6368 39.759C42.6368 37.1115 40.4831 34.9579 37.8357 34.9579H33.6343C33.6558 34.7565 33.6669 34.5532 33.6669 34.3485C33.6669 32.4465 32.74 30.7361 31.246 29.7029C31.2385 28.9438 31.1312 28.2082 30.9388 27.5077C35.5647 17.3067 44.5622 9.72523 55.0165 6.67225C48.9371 14.0736 45.1066 27.916 45.1264 42.9186C45.1435 55.6213 47.8023 67.4204 52.4216 75.2901C54.2867 78.4671 55.6137 83.1626 56.1577 88.5116L56.9197 95.9984C56.9258 96.0582 56.9353 96.1149 56.9426 96.1738L54.6071 96.1741ZM74.2033 138.388C74.1301 139.198 73.4629 139.808 72.6501 139.808H57.81C56.9979 139.808 56.3301 139.198 56.2569 138.388L55.3025 127.802H75.1576L74.2033 138.388ZM77.8098 121.344C78.4346 121.344 78.9432 121.852 78.9432 122.477C78.9432 123.102 78.4349 123.61 77.8098 123.61H52.9299C52.3051 123.61 51.7965 123.102 51.7965 122.477C51.7965 121.852 52.3049 121.344 52.9299 121.344H77.8098ZM56.961 100.366H63.1343V117.152H58.9144L56.961 100.366ZM67.3259 117.152V100.366H73.7788L71.8251 117.152H67.3259ZM88.2435 72.539C83.3876 76.3017 79.9593 81.7357 78.5893 87.8405L76.9099 95.3278C76.7982 95.8261 76.3636 96.1744 75.8531 96.1744H73.5179C73.5252 96.1155 73.5347 96.0588 73.5408 95.999L74.3024 88.5114C74.8454 83.1737 76.1796 78.4659 78.0595 75.2549C81.9649 68.5831 84.4629 59.1046 85.1444 48.6484C85.2226 47.4463 84.2604 46.4302 83.0558 46.4302H83.0472C81.9423 46.4302 81.0326 47.291 80.9614 48.3937C80.326 58.1967 78.0291 67.0095 74.4421 73.1373C72.2653 76.8558 70.7344 82.1655 70.132 88.0877L69.3706 95.5747C69.3455 95.82 69.3053 96.0202 69.2628 96.1747H61.1973C61.1554 96.0199 61.1149 95.8197 61.0901 95.575L60.3282 88.0882C59.7243 82.1524 58.2002 76.8539 56.0365 73.1688C51.7826 65.922 49.334 54.8945 49.3181 42.9139C49.298 27.9576 53.3986 13.9035 59.5216 7.94081C61.3015 6.20751 63.1326 5.28499 64.9486 5.19897C65.1145 5.19757 65.2801 5.1945 65.4463 5.19534C72.1169 5.42939 79.1881 17.1617 80.8011 35.0699C80.8986 36.1519 81.7982 36.9845 82.8843 36.9845C84.1183 36.9845 85.079 35.9217 84.9668 34.6931C84.2587 26.9533 82.5397 19.8067 79.9523 14.0345C78.6324 11.0896 77.1295 8.60861 75.488 6.62533C91.2305 11.1259 102.837 25.7032 102.837 42.7969C102.837 54.5125 97.5177 65.353 88.2435 72.539ZM119.688 66.1214H99.9395C102.935 61.6823 105.04 56.7052 106.14 51.426C107.762 52.0921 108.907 53.6869 108.907 55.5459C108.907 55.802 108.884 56.0662 108.837 56.3312C108.652 57.3755 109.277 58.393 110.291 58.7011C110.902 58.8865 111.328 59.4624 111.328 60.1017C111.328 60.5293 111.141 60.9349 110.814 61.2142C110.147 61.7845 109.906 62.7101 110.211 63.5329C110.515 64.3557 111.299 64.9025 112.177 64.9025H119.688C120.024 64.9025 120.298 65.176 120.298 65.512C120.298 65.8479 120.024 66.1214 119.688 66.1214Z" fill="#FFA800"/>
<path d="M23.8134 95.3611C23.2411 91.9422 20.2607 89.328 16.6819 89.328C14.1316 89.328 11.8143 90.6653 10.5195 92.7756C6.81184 93.0817 3.88874 96.1964 3.88874 99.9814C3.88874 103.968 7.13219 107.212 11.1191 107.212H23.4017C23.557 107.212 23.7103 107.194 23.8597 107.16C26.7918 106.783 29.0471 104.249 29.0471 101.265C29.0471 98.2277 26.7577 95.7141 23.8134 95.3611ZM23.2391 103.012C23.209 103.014 23.1788 103.017 23.1489 103.02H11.1194C9.44392 103.02 8.0804 101.657 8.0804 99.9814C8.0804 98.3059 9.44364 96.9424 11.1194 96.9424C11.2532 96.9424 11.3942 96.9525 11.5389 96.9723C12.5349 97.1083 13.4828 96.5226 13.8071 95.5742C14.2277 94.345 15.3829 93.5191 16.6819 93.5191C18.3573 93.5191 19.7209 94.8823 19.7209 96.5581C19.7209 96.7796 19.6957 97.0044 19.646 97.2262C19.477 97.9828 19.7393 98.7712 20.3283 99.2757C20.9171 99.7803 21.7371 99.9178 22.4585 99.634C22.6677 99.5516 22.8836 99.51 23.1001 99.51C24.0681 99.51 24.8551 100.297 24.8551 101.265C24.8554 102.174 24.1455 102.941 23.2391 103.012Z" fill="#FFA800"/>
<path d="M119.688 60.7114H115.487C115.508 60.5103 115.519 60.3067 115.519 60.102C115.519 58.2003 114.592 56.4896 113.098 55.4565C113.059 51.5402 110.4 48.2412 106.794 47.2254C106.947 45.7647 107.028 44.2877 107.028 42.7971C107.028 31.7264 102.743 21.2925 94.9616 13.4186C87.1877 5.55144 76.8197 1.14193 65.7677 1.00256C65.6895 1.00144 65.6119 1.00451 65.5337 1.00368C65.5292 1.00368 65.525 1.00312 65.5206 1.00312C65.3128 0.997811 65.1047 0.999766 64.8972 1.00731C56.8093 1.06708 48.9768 3.49331 42.181 8.03996C36.3314 11.9532 31.5987 17.1936 28.329 23.3238C26.8027 21.9709 24.7971 21.1476 22.6018 21.1476C19.6829 21.1476 16.9964 22.6189 15.4108 24.9946C10.7421 25.1088 6.97999 28.9419 6.97999 33.6371C6.97999 34.0817 7.01406 34.5233 7.08109 34.9584H5.80108C3.15365 34.9584 1 37.1121 1 39.7595C1 42.4067 3.15365 44.5603 5.80108 44.5603H23.4721C23.9821 56.9219 29.8322 68.2675 39.6952 75.888C43.7503 79.0215 46.622 83.5919 47.7808 88.7591L49.4605 96.2462C49.8577 98.0169 51.0947 99.3947 52.6998 100.011L54.6948 117.153H52.9302C49.9943 117.153 47.6052 119.542 47.6052 122.478C47.6052 124.757 49.0466 126.7 51.0628 127.459L52.0823 138.766C52.3518 141.75 54.8138 144.001 57.81 144.001H72.6501C75.6461 144.001 78.1084 141.75 78.3779 138.766L79.3878 127.564C81.556 126.89 83.1346 124.865 83.1346 122.478C83.1346 119.542 80.7458 117.153 77.8095 117.153H76.0449L78.0539 99.8921C79.5158 99.2265 80.6271 97.9085 80.9999 96.2464L82.6793 88.7588C83.8359 83.6036 86.7235 79.0198 90.8107 75.8531C92.9742 74.1768 94.9409 72.3192 96.703 70.3139H119.688C122.335 70.3139 124.489 68.1602 124.489 65.5128C124.489 62.8653 122.335 60.7114 119.688 60.7114ZM5.80108 40.3684C5.46509 40.3684 5.19166 40.095 5.19166 39.7592C5.19166 39.4233 5.46509 39.1498 5.80108 39.1498H10.0374C10.796 39.1498 11.4954 38.7398 11.866 38.0782C12.2366 37.4165 12.221 36.6057 11.8244 35.9592C11.3973 35.262 11.1717 34.4591 11.1717 33.6368C11.1717 31.181 13.1695 29.1832 15.6253 29.1832C15.8468 29.1832 16.0722 29.2002 16.2948 29.2334C17.2293 29.3737 18.1426 28.8692 18.5233 28.004C19.2346 26.3852 20.8355 25.3392 22.6018 25.3392C25.0574 25.3392 27.0552 27.337 27.0552 29.7929C27.0552 30.0498 27.0314 30.314 26.9848 30.5774C26.7996 31.622 27.4238 32.6403 28.4391 32.9484C29.0496 33.1338 29.4758 33.7097 29.4758 34.349C29.4758 34.7766 29.2884 35.1822 28.9614 35.4617C28.295 36.0323 28.0542 36.9576 28.3584 37.7804C28.6625 38.6032 29.4471 39.1498 30.3243 39.1498H37.8363C38.1722 39.1498 38.4457 39.4233 38.4457 39.7592C38.4457 40.0952 38.172 40.3684 37.8363 40.3684H5.80108ZM54.6071 96.1741C54.0968 96.1744 53.662 95.8264 53.5505 95.3281L51.8708 87.841C50.4984 81.7231 47.0845 76.3 42.258 72.5709C33.4301 65.7494 28.1751 55.6132 27.6679 44.5598H37.8357C40.4831 44.5598 42.6368 42.4061 42.6368 39.759C42.6368 37.1115 40.4831 34.9579 37.8357 34.9579H33.6343C33.6558 34.7565 33.6669 34.5532 33.6669 34.3485C33.6669 32.4465 32.74 30.7361 31.246 29.7029C31.2385 28.9438 31.1312 28.2082 30.9388 27.5077C35.5647 17.3067 44.5622 9.72523 55.0165 6.67225C48.9371 14.0736 45.1066 27.916 45.1264 42.9186C45.1435 55.6213 47.8023 67.4204 52.4216 75.2901C54.2867 78.4671 55.6137 83.1626 56.1577 88.5116L56.9197 95.9984C56.9258 96.0582 56.9353 96.1149 56.9426 96.1738L54.6071 96.1741ZM74.2033 138.388C74.1301 139.198 73.4629 139.808 72.6501 139.808H57.81C56.9979 139.808 56.3301 139.198 56.2569 138.388L55.3025 127.802H75.1576L74.2033 138.388ZM77.8098 121.344C78.4346 121.344 78.9432 121.852 78.9432 122.477C78.9432 123.102 78.4349 123.61 77.8098 123.61H52.9299C52.3051 123.61 51.7965 123.102 51.7965 122.477C51.7965 121.852 52.3049 121.344 52.9299 121.344H77.8098ZM56.961 100.366H63.1343V117.152H58.9144L56.961 100.366ZM67.3259 117.152V100.366H73.7788L71.8251 117.152H67.3259ZM88.2435 72.539C83.3876 76.3017 79.9593 81.7357 78.5893 87.8405L76.9099 95.3278C76.7982 95.8261 76.3636 96.1744 75.8531 96.1744H73.5179C73.5252 96.1155 73.5347 96.0588 73.5408 95.999L74.3024 88.5114C74.8454 83.1737 76.1796 78.4659 78.0595 75.2549C81.9649 68.5831 84.4629 59.1046 85.1444 48.6484C85.2226 47.4463 84.2604 46.4302 83.0558 46.4302H83.0472C81.9423 46.4302 81.0326 47.291 80.9614 48.3937C80.326 58.1967 78.0291 67.0095 74.4421 73.1373C72.2653 76.8558 70.7344 82.1655 70.132 88.0877L69.3706 95.5747C69.3455 95.82 69.3053 96.0202 69.2628 96.1747H61.1973C61.1554 96.0199 61.1149 95.8197 61.0901 95.575L60.3282 88.0882C59.7243 82.1524 58.2002 76.8539 56.0365 73.1688C51.7826 65.922 49.334 54.8945 49.3181 42.9139C49.298 27.9576 53.3986 13.9035 59.5216 7.94081C61.3015 6.20751 63.1326 5.28499 64.9486 5.19897C65.1145 5.19757 65.2801 5.1945 65.4463 5.19534C72.1169 5.42939 79.1881 17.1617 80.8011 35.0699C80.8986 36.1519 81.7982 36.9845 82.8843 36.9845C84.1183 36.9845 85.079 35.9217 84.9668 34.6931C84.2587 26.9533 82.5397 19.8067 79.9523 14.0345C78.6324 11.0896 77.1295 8.60861 75.488 6.62533C91.2305 11.1259 102.837 25.7032 102.837 42.7969C102.837 54.5125 97.5177 65.353 88.2435 72.539ZM119.688 66.1214H99.9395C102.935 61.6823 105.04 56.7052 106.14 51.426C107.762 52.0921 108.907 53.6869 108.907 55.5459C108.907 55.802 108.884 56.0662 108.837 56.3312C108.652 57.3755 109.277 58.393 110.291 58.7011C110.902 58.8865 111.328 59.4624 111.328 60.1017C111.328 60.5293 111.141 60.9349 110.814 61.2142C110.147 61.7845 109.906 62.7101 110.211 63.5329C110.515 64.3557 111.299 64.9025 112.177 64.9025H119.688C120.024 64.9025 120.298 65.176 120.298 65.512C120.298 65.8479 120.024 66.1214 119.688 66.1214Z" stroke="white"/>
<path d="M23.8134 95.3611C23.2411 91.9422 20.2607 89.328 16.6819 89.328C14.1316 89.328 11.8143 90.6653 10.5195 92.7756C6.81184 93.0817 3.88874 96.1964 3.88874 99.9814C3.88874 103.968 7.13219 107.212 11.1191 107.212H23.4017C23.557 107.212 23.7103 107.194 23.8597 107.16C26.7918 106.783 29.0471 104.249 29.0471 101.265C29.0471 98.2277 26.7577 95.7141 23.8134 95.3611ZM23.2391 103.012C23.209 103.014 23.1788 103.017 23.1489 103.02H11.1194C9.44392 103.02 8.0804 101.657 8.0804 99.9814C8.0804 98.3059 9.44364 96.9424 11.1194 96.9424C11.2532 96.9424 11.3942 96.9525 11.5389 96.9723C12.5349 97.1083 13.4828 96.5226 13.8071 95.5742C14.2277 94.345 15.3829 93.5191 16.6819 93.5191C18.3573 93.5191 19.7209 94.8823 19.7209 96.5581C19.7209 96.7796 19.6957 97.0044 19.646 97.2262C19.477 97.9828 19.7393 98.7712 20.3283 99.2757C20.9171 99.7803 21.7371 99.9178 22.4585 99.634C22.6677 99.5516 22.8836 99.51 23.1001 99.51C24.0681 99.51 24.8551 100.297 24.8551 101.265C24.8554 102.174 24.1455 102.941 23.2391 103.012Z" stroke="white"/>
</svg>
