<svg width="130" height="142" viewBox="0 0 130 142" fill="none" xmlns="http://www.w3.org/2000/svg">
<mask id="path-1-inside-1_1_169" fill="white">
<path d="M126.779 41.1104C124.885 40.7987 123.509 39.1747 123.509 37.2493C123.509 35.5811 124.567 34.0943 126.143 33.5497C129.662 32.3324 127.835 27.0488 124.315 28.2661C122.834 28.7785 121.543 29.6369 120.515 30.7282C116.789 25.5569 110.248 22.8654 103.908 24.2923C100.132 25.1424 96.4632 26.3072 92.9238 27.7722C91.9848 23.4082 88.9743 13.7332 83.5188 6.44003C80.5826 2.51519 76.4604 0 71.15 0H61.1482C52.3109 0 46.2787 7.81783 47.2853 15.7726C48.9474 28.9054 55.3947 42.5514 66.3754 51.8334C64.1366 56.9252 62.786 62.2958 62.3384 67.7659C55.4743 66.9913 48.4585 67.3899 41.7389 68.9382C40.6558 62.9175 38.4584 57.0591 35.2978 51.8328C31.7914 46.0343 25.935 44.6372 21.0841 45.7042L17.5679 37.7837C16.0668 34.4003 10.9571 36.6673 12.4581 40.0507L15.9821 47.989C11.9583 50.883 9.09206 56.128 10.9772 62.6033C12.8799 69.1386 16.0274 75.0828 20.3475 80.3119C17.1861 83.3559 14.438 86.8959 12.2015 90.8587C6.05556 101.748 2.36523 114.07 1.44503 126.487C0.78758 135.355 8.07346 142 15.9494 142H33.2497C37.2676 142 41.0007 139.818 42.9926 136.305C49.5805 124.687 53.3779 111.727 54.0471 98.6584C54.9083 98.6456 55.7706 98.6151 56.6333 98.5634C58.2403 111.947 62.9936 124.694 70.6315 135.923C73.2202 139.728 77.5316 142 82.165 142H96.3209C105.349 142 110.831 133.984 110.251 126.86C109.172 113.609 104.981 100.642 98.0688 89.3658C94.9898 84.3438 90.9073 79.9309 86.1729 76.4866C88.9064 70.2441 90.3558 63.4631 90.3885 56.6295C92.7846 56.8892 101.706 57.6637 110.419 55.7875C118.753 53.993 121.697 47.7181 122.548 45.4165C123.545 46.0088 124.664 46.4281 125.873 46.6269C129.539 47.2298 130.446 41.7136 126.779 41.1104ZM12.7044 27.4219C12.7044 28.966 11.4527 30.2175 9.90884 30.2175C8.36501 30.2175 7.11329 28.9658 7.11329 27.4219C7.11329 25.8778 8.36501 24.6264 9.90884 24.6264C11.4527 24.6264 12.7044 25.8778 12.7044 27.4219ZM78.9499 9.66187C83.2641 15.7788 86.271 22.8402 87.717 30.1948C86.6347 30.7561 85.5663 31.3471 84.5133 31.9682L82.6184 29.3219C80.0789 25.7752 78.0683 21.887 76.6419 17.7648L73.555 8.84202C73.1528 7.67918 72.5965 6.60132 71.9162 5.62549C74.7134 5.85526 77.3015 7.32502 78.9499 9.66187ZM52.8295 15.0528C52.2299 10.6581 55.611 5.59055 61.1479 5.59055C64.3577 5.59055 67.2209 7.63194 68.272 10.6701L71.3588 19.5929C72.961 24.2239 75.2199 28.5923 78.073 32.5767L80.8068 36.3948C80.3118 39.1095 79.5699 41.7857 78.487 44.3202C76.6385 48.647 71.4449 49.2421 68.49 46.3991C59.8853 38.1189 54.4493 26.9261 52.8295 15.0528ZM84.794 55.7811C84.9069 63.8133 82.8082 71.7975 78.7716 78.7345C76.8319 77.3305 72.2024 74.7602 67.8792 75.0914C67.3339 67.7468 68.6267 60.435 71.6724 53.6849C72.8517 53.8678 74.9166 53.6064 75.7689 53.3492C78.7241 54.3723 81.7396 55.1852 84.794 55.7811ZM16.345 61.0407C14.9264 56.1677 17.834 52.9417 20.7551 51.6595C23.6364 50.3949 27.9216 50.4391 30.5139 54.7256C33.4182 59.5285 35.4096 64.9309 36.3343 70.4728C32.107 71.9462 28.1662 74.0474 24.6112 76.6959C20.802 72.0684 18.0258 66.8135 16.345 61.0407ZM7.02132 126.887C7.83307 115.287 11.3283 103.78 17.0703 93.6065C20.1538 88.1429 24.3372 83.5961 29.2941 80.2238C31.1152 87.3479 35.0135 91.8575 38.8897 94.5477L34.7256 102.294C31.9188 107.515 30.0069 113.128 29.0425 118.978L26.941 131.728C26.4943 134.441 24.1743 136.409 21.4251 136.409H15.9494C11.1033 136.409 6.63082 132.469 7.02132 126.887ZM38.1294 133.548C37.1287 135.313 35.2586 136.409 33.2497 136.409H31.1152C31.7685 135.272 32.2325 134.002 32.4575 132.637L34.559 119.887C35.4227 114.647 37.1357 109.618 39.6497 104.941L43.8373 97.1509C45.3174 97.7114 46.8657 98.1234 48.4646 98.3716C47.8399 110.575 44.2896 122.684 38.1294 133.548ZM51.4444 93.0497C44.2365 92.8015 37.9977 88.2267 35.5505 81.3948C35.0769 80.0726 34.6602 78.718 34.2943 77.3506C43.1679 72.9726 54.8471 72.484 62.1956 73.3802C62.2311 74.5014 62.3024 75.6239 62.4139 76.7471C59.2181 78.5115 56.0228 82.5872 56.0228 87.6428C56.0228 89.4346 56.0535 91.2185 56.1497 92.9946C54.5765 93.0841 53.0022 93.1034 51.4444 93.0497ZM88.486 136.409H82.165C79.3843 136.409 76.8006 135.052 75.254 132.779C66.2035 119.473 61.6131 103.881 61.6131 87.6864C61.6131 84.5618 64.2314 80.6524 68.7385 80.6524C73.086 80.6524 79.4159 85.1298 81.1006 90.9149L93.7663 129.095C94.817 132 92.8695 136.409 88.486 136.409ZM93.3025 92.2877C99.7568 102.817 103.691 114.925 104.678 127.304C104.868 129.69 103.834 134.669 98.2846 136.181C99.7697 133.477 100.064 130.324 99.0723 127.335L86.4066 89.1545C85.6189 86.7799 84.4261 84.6021 82.9128 82.696C83.1481 82.3156 83.3787 81.9323 83.6035 81.546C87.4425 84.4771 90.7622 88.1443 93.3025 92.2877ZM109.354 50.2993C100.219 52.1062 90.8265 51.7495 81.9109 49.385C82.6237 48.5056 83.2175 47.5191 83.6591 46.4432C84.8516 43.5387 85.7385 40.5077 86.3037 37.4162C92.1112 33.8323 98.44 31.2531 105.135 29.7459C110.057 28.6384 115.379 31.5366 117.262 36.3453C119.046 40.9013 117.071 48.7731 109.354 50.2993ZM2.24951 17.0568L0.267659 12.5955C-1.21719 9.25264 3.89257 6.98288 5.37742 10.3257L7.35927 14.7901C8.86397 18.1813 3.75421 20.4483 2.24951 17.0568Z"/>
</mask>
<path d="M126.779 41.1104C124.885 40.7987 123.509 39.1747 123.509 37.2493C123.509 35.5811 124.567 34.0943 126.143 33.5497C129.662 32.3324 127.835 27.0488 124.315 28.2661C122.834 28.7785 121.543 29.6369 120.515 30.7282C116.789 25.5569 110.248 22.8654 103.908 24.2923C100.132 25.1424 96.4632 26.3072 92.9238 27.7722C91.9848 23.4082 88.9743 13.7332 83.5188 6.44003C80.5826 2.51519 76.4604 0 71.15 0H61.1482C52.3109 0 46.2787 7.81783 47.2853 15.7726C48.9474 28.9054 55.3947 42.5514 66.3754 51.8334C64.1366 56.9252 62.786 62.2958 62.3384 67.7659C55.4743 66.9913 48.4585 67.3899 41.7389 68.9382C40.6558 62.9175 38.4584 57.0591 35.2978 51.8328C31.7914 46.0343 25.935 44.6372 21.0841 45.7042L17.5679 37.7837C16.0668 34.4003 10.9571 36.6673 12.4581 40.0507L15.9821 47.989C11.9583 50.883 9.09206 56.128 10.9772 62.6033C12.8799 69.1386 16.0274 75.0828 20.3475 80.3119C17.1861 83.3559 14.438 86.8959 12.2015 90.8587C6.05556 101.748 2.36523 114.07 1.44503 126.487C0.78758 135.355 8.07346 142 15.9494 142H33.2497C37.2676 142 41.0007 139.818 42.9926 136.305C49.5805 124.687 53.3779 111.727 54.0471 98.6584C54.9083 98.6456 55.7706 98.6151 56.6333 98.5634C58.2403 111.947 62.9936 124.694 70.6315 135.923C73.2202 139.728 77.5316 142 82.165 142H96.3209C105.349 142 110.831 133.984 110.251 126.86C109.172 113.609 104.981 100.642 98.0688 89.3658C94.9898 84.3438 90.9073 79.9309 86.1729 76.4866C88.9064 70.2441 90.3558 63.4631 90.3885 56.6295C92.7846 56.8892 101.706 57.6637 110.419 55.7875C118.753 53.993 121.697 47.7181 122.548 45.4165C123.545 46.0088 124.664 46.4281 125.873 46.6269C129.539 47.2298 130.446 41.7136 126.779 41.1104ZM12.7044 27.4219C12.7044 28.966 11.4527 30.2175 9.90884 30.2175C8.36501 30.2175 7.11329 28.9658 7.11329 27.4219C7.11329 25.8778 8.36501 24.6264 9.90884 24.6264C11.4527 24.6264 12.7044 25.8778 12.7044 27.4219ZM78.9499 9.66187C83.2641 15.7788 86.271 22.8402 87.717 30.1948C86.6347 30.7561 85.5663 31.3471 84.5133 31.9682L82.6184 29.3219C80.0789 25.7752 78.0683 21.887 76.6419 17.7648L73.555 8.84202C73.1528 7.67918 72.5965 6.60132 71.9162 5.62549C74.7134 5.85526 77.3015 7.32502 78.9499 9.66187ZM52.8295 15.0528C52.2299 10.6581 55.611 5.59055 61.1479 5.59055C64.3577 5.59055 67.2209 7.63194 68.272 10.6701L71.3588 19.5929C72.961 24.2239 75.2199 28.5923 78.073 32.5767L80.8068 36.3948C80.3118 39.1095 79.5699 41.7857 78.487 44.3202C76.6385 48.647 71.4449 49.2421 68.49 46.3991C59.8853 38.1189 54.4493 26.9261 52.8295 15.0528ZM84.794 55.7811C84.9069 63.8133 82.8082 71.7975 78.7716 78.7345C76.8319 77.3305 72.2024 74.7602 67.8792 75.0914C67.3339 67.7468 68.6267 60.435 71.6724 53.6849C72.8517 53.8678 74.9166 53.6064 75.7689 53.3492C78.7241 54.3723 81.7396 55.1852 84.794 55.7811ZM16.345 61.0407C14.9264 56.1677 17.834 52.9417 20.7551 51.6595C23.6364 50.3949 27.9216 50.4391 30.5139 54.7256C33.4182 59.5285 35.4096 64.9309 36.3343 70.4728C32.107 71.9462 28.1662 74.0474 24.6112 76.6959C20.802 72.0684 18.0258 66.8135 16.345 61.0407ZM7.02132 126.887C7.83307 115.287 11.3283 103.78 17.0703 93.6065C20.1538 88.1429 24.3372 83.5961 29.2941 80.2238C31.1152 87.3479 35.0135 91.8575 38.8897 94.5477L34.7256 102.294C31.9188 107.515 30.0069 113.128 29.0425 118.978L26.941 131.728C26.4943 134.441 24.1743 136.409 21.4251 136.409H15.9494C11.1033 136.409 6.63082 132.469 7.02132 126.887ZM38.1294 133.548C37.1287 135.313 35.2586 136.409 33.2497 136.409H31.1152C31.7685 135.272 32.2325 134.002 32.4575 132.637L34.559 119.887C35.4227 114.647 37.1357 109.618 39.6497 104.941L43.8373 97.1509C45.3174 97.7114 46.8657 98.1234 48.4646 98.3716C47.8399 110.575 44.2896 122.684 38.1294 133.548ZM51.4444 93.0497C44.2365 92.8015 37.9977 88.2267 35.5505 81.3948C35.0769 80.0726 34.6602 78.718 34.2943 77.3506C43.1679 72.9726 54.8471 72.484 62.1956 73.3802C62.2311 74.5014 62.3024 75.6239 62.4139 76.7471C59.2181 78.5115 56.0228 82.5872 56.0228 87.6428C56.0228 89.4346 56.0535 91.2185 56.1497 92.9946C54.5765 93.0841 53.0022 93.1034 51.4444 93.0497ZM88.486 136.409H82.165C79.3843 136.409 76.8006 135.052 75.254 132.779C66.2035 119.473 61.6131 103.881 61.6131 87.6864C61.6131 84.5618 64.2314 80.6524 68.7385 80.6524C73.086 80.6524 79.4159 85.1298 81.1006 90.9149L93.7663 129.095C94.817 132 92.8695 136.409 88.486 136.409ZM93.3025 92.2877C99.7568 102.817 103.691 114.925 104.678 127.304C104.868 129.69 103.834 134.669 98.2846 136.181C99.7697 133.477 100.064 130.324 99.0723 127.335L86.4066 89.1545C85.6189 86.7799 84.4261 84.6021 82.9128 82.696C83.1481 82.3156 83.3787 81.9323 83.6035 81.546C87.4425 84.4771 90.7622 88.1443 93.3025 92.2877ZM109.354 50.2993C100.219 52.1062 90.8265 51.7495 81.9109 49.385C82.6237 48.5056 83.2175 47.5191 83.6591 46.4432C84.8516 43.5387 85.7385 40.5077 86.3037 37.4162C92.1112 33.8323 98.44 31.2531 105.135 29.7459C110.057 28.6384 115.379 31.5366 117.262 36.3453C119.046 40.9013 117.071 48.7731 109.354 50.2993ZM2.24951 17.0568L0.267659 12.5955C-1.21719 9.25264 3.89257 6.98288 5.37742 10.3257L7.35927 14.7901C8.86397 18.1813 3.75421 20.4483 2.24951 17.0568Z" fill="#FFA800" stroke="white" stroke-width="2.01575" mask="url(#path-1-inside-1_1_169)"/>
</svg>
