<svg width="14" height="9" viewBox="0 0 14 9" fill="none" xmlns="http://www.w3.org/2000/svg">
<path d="M7.54628 8.05105L13.7763 1.98736C13.9206 1.84711 14 1.65989 14 1.46027C14 1.26065 13.9206 1.07343 13.7763 0.933185L13.3176 0.486636C13.0188 0.196064 12.533 0.196064 12.2345 0.486636L7.0029 5.57847L1.76547 0.480986C1.62126 0.34074 1.42901 0.263306 1.22402 0.263306C1.0188 0.263306 0.826562 0.34074 0.682238 0.480986L0.223656 0.927535C0.0794461 1.06789 9.10254e-09 1.255 0 1.45462C-9.10254e-09 1.65424 0.0794461 1.84146 0.223656 1.98171L6.45941 8.05105C6.60408 8.19163 6.79723 8.26884 7.00256 8.2684C7.20869 8.26884 7.40173 8.19163 7.54628 8.05105Z" fill="#2F4858"/>
</svg>
