<svg width="19" height="30" viewBox="0 0 19 30" fill="none" xmlns="http://www.w3.org/2000/svg">
<path d="M18.9238 9.59201C18.9238 4.54106 14.7621 0.432129 9.64633 0.432129C4.53052 0.432129 0.368835 4.54106 0.368835 9.59201C0.368835 13.981 3.51293 17.6551 7.69317 18.5436V27.4297C7.69317 28.4932 8.56916 29.3581 9.64633 29.3581C10.7235 29.3581 11.5995 28.4932 11.5995 27.4297V18.5436C15.7797 17.6551 18.9238 13.981 18.9238 9.59201ZM10.6229 27.4297C10.6229 27.9614 10.1849 28.3939 9.64633 28.3939C9.10775 28.3939 8.66975 27.9614 8.66975 27.4297V18.6998C8.743 18.7075 8.81868 18.708 8.89241 18.7138C9.40609 18.7596 9.88706 18.7596 10.4002 18.7138C10.474 18.708 10.5497 18.7075 10.6229 18.6998V27.4297ZM12.5761 11.0383C10.9608 11.0383 9.64633 9.74097 9.64633 8.14571C9.64633 6.55044 10.9608 5.25312 12.5761 5.25312C14.1918 5.25312 15.5058 6.55044 15.5058 8.14571C15.5058 9.74097 14.1913 11.0383 12.5761 11.0383Z" fill="#FFA800"/>
<path d="M12.5761 10.0741C13.6548 10.0741 14.5292 9.21073 14.5292 8.14571C14.5292 7.08069 13.6548 6.21731 12.5761 6.21731C11.4974 6.21731 10.6229 7.08069 10.6229 8.14571C10.6229 9.21073 11.4974 10.0741 12.5761 10.0741Z" fill="#FFA800"/>
</svg>
