<svg width="133" height="107" viewBox="0 0 133 107" fill="none" xmlns="http://www.w3.org/2000/svg">
<mask id="path-1-inside-1_1_177" fill="white">
<path fill-rule="evenodd" clip-rule="evenodd" d="M120.987 81.7716C120.987 80.9803 120.347 80.3355 119.562 80.3355C118.776 80.3355 118.136 80.9803 118.136 81.7716C118.078 87.3989 113.538 91.9125 107.952 91.8832C107.166 91.8832 106.526 92.528 106.526 93.3193C106.526 94.1106 107.166 94.7554 107.952 94.7554C113.538 94.7261 118.078 99.2397 118.136 104.867C118.136 105.658 118.776 106.303 119.562 106.303C120.347 106.303 120.987 105.658 120.987 104.867C121.045 99.2397 125.585 94.7261 131.171 94.7554C131.957 94.7554 132.597 94.1106 132.597 93.3193C132.597 92.528 131.957 91.8832 131.171 91.8832C125.585 91.9125 121.045 87.3989 120.987 81.7716ZM110.105 25.8797C110.483 25.8797 110.803 26.2021 110.803 26.5831C110.832 29.3967 113.102 31.6535 115.895 31.6242C116.273 31.6242 116.594 31.9466 116.594 32.3276C116.594 32.7086 116.273 33.031 115.895 33.031C113.102 33.0017 110.832 35.2585 110.803 38.0722C110.803 38.4532 110.483 38.7756 110.105 38.7756C109.727 38.7756 109.406 38.4532 109.406 38.0722C109.377 35.2878 107.108 33.0017 104.314 33.031C103.936 33.031 103.616 32.7086 103.616 32.3276C103.616 31.9466 103.936 31.6242 104.314 31.6242C107.108 31.6535 109.377 29.3967 109.406 26.5831C109.406 26.2021 109.727 25.8797 110.105 25.8797ZM7.18713 31.3604C7.18713 30.9794 6.86706 30.657 6.4888 30.657C6.11053 30.657 5.79045 30.9794 5.79045 31.3604C5.76135 34.1741 3.49174 36.4309 0.698393 36.4016C0.320128 36.4016 5.94299e-05 36.7239 5.94132e-05 37.105C5.93966e-05 37.486 0.320128 37.8084 0.698393 37.8084C3.49174 37.7791 5.76135 40.0652 5.79045 42.8495C5.79045 43.2305 6.11053 43.5529 6.4888 43.5529C6.86706 43.5529 7.18713 43.2305 7.18713 42.8495C7.21623 40.0358 9.48583 37.7791 12.2792 37.8084C12.6575 37.8084 12.9775 37.486 12.9775 37.105C12.9775 36.7239 12.6575 36.4016 12.2792 36.4016C9.48583 36.4309 7.21623 34.1741 7.18713 31.3604ZM38.1468 22.1575C38.1468 22.8609 37.5649 23.4471 36.8665 23.4471C36.1682 23.4471 35.5862 22.8609 35.5862 22.1575C35.5572 17.0577 31.4253 12.9838 26.3915 13.0131C25.6931 13.0131 25.1112 12.4269 25.1112 11.7235C25.1112 11.0201 25.6931 10.4339 26.3915 10.4339C31.4253 10.4632 35.5572 6.36001 35.5863 1.28958C35.5863 0.58617 36.1682 -4.21504e-06 36.8665 -4.18452e-06C37.5649 -4.15399e-06 38.1468 0.586171 38.1468 1.28958C38.1759 6.38932 42.3078 10.4632 47.3416 10.4339C48.04 10.4339 48.6219 11.0201 48.6219 11.7235C48.6219 12.4269 48.04 13.0131 47.3416 13.0131C42.3078 12.9838 38.1759 17.087 38.1468 22.1575ZM72.7146 80.3355C74.1695 80.3355 75.3334 79.1631 75.3334 77.6977C75.4207 67.2931 83.8298 58.94 94.1594 58.9987C95.6143 58.9987 96.7782 57.8263 96.7782 56.3609C96.7782 54.8954 95.6143 53.7231 94.1594 53.7231C83.8298 53.7817 75.4207 45.4287 75.3334 35.024C75.3334 33.5586 74.1695 32.3862 72.7146 32.3862C71.2597 32.3862 70.0958 33.5586 70.0958 35.024C70.0085 45.4287 61.5994 53.7817 51.2698 53.7231C49.8149 53.7231 48.651 54.8954 48.651 56.3609C48.651 57.8263 49.8149 58.9987 51.2698 58.9987C61.5994 58.94 70.0085 67.3224 70.0958 77.6977C70.0958 79.1631 71.2597 80.3355 72.7146 80.3355Z"/>
</mask>
<path d="M120.987 81.7716L116.987 81.7716L116.987 81.7923L116.987 81.813L120.987 81.7716ZM118.136 81.7716L122.136 81.813L122.136 81.7923L122.136 81.7716L118.136 81.7716ZM107.952 91.8832L107.973 87.8832L107.962 87.8832L107.952 87.8832L107.952 91.8832ZM107.952 94.7554L107.952 98.7554L107.962 98.7554L107.973 98.7554L107.952 94.7554ZM118.136 104.867L122.136 104.867L122.136 104.846L122.136 104.826L118.136 104.867ZM120.987 104.867L116.987 104.826L116.987 104.846L116.987 104.867L120.987 104.867ZM131.171 94.7554L131.15 98.7554L131.161 98.7554L131.171 98.7554L131.171 94.7554ZM131.171 91.8832L131.171 87.8832L131.161 87.8832L131.15 87.8832L131.171 91.8832ZM110.803 26.5831L106.803 26.5831L106.803 26.6038L106.803 26.6245L110.803 26.5831ZM115.895 31.6242L115.895 27.6242L115.874 27.6242L115.853 27.6244L115.895 31.6242ZM115.895 33.031L115.853 37.0308L115.874 37.031L115.895 37.031L115.895 33.031ZM110.803 38.0722L106.803 38.0308L106.803 38.0515L106.803 38.0722L110.803 38.0722ZM109.406 38.0722L113.406 38.0722L113.406 38.0513L113.406 38.0304L109.406 38.0722ZM104.314 33.031L104.314 37.031L104.335 37.031L104.356 37.0308L104.314 33.031ZM104.314 31.6242L104.356 27.6244L104.335 27.6242L104.314 27.6242L104.314 31.6242ZM109.406 26.5831L113.406 26.6245L113.406 26.6038L113.406 26.5831L109.406 26.5831ZM7.18713 31.3604L3.18713 31.3604L3.18713 31.3811L3.18735 31.4018L7.18713 31.3604ZM5.79045 31.3604L9.79024 31.4018L9.79045 31.3811L9.79045 31.3604L5.79045 31.3604ZM0.698393 36.4016L0.740355 32.4018L0.719374 32.4016L0.698393 32.4016L0.698393 36.4016ZM0.698393 37.8084L0.698393 41.8084L0.719374 41.8084L0.740355 41.8082L0.698393 37.8084ZM5.79045 42.8495L9.79045 42.8495L9.79045 42.8286L9.79023 42.8077L5.79045 42.8495ZM7.18713 42.8495L3.18735 42.8081L3.18713 42.8288L3.18713 42.8495L7.18713 42.8495ZM12.2792 37.8084L12.2372 41.8082L12.2582 41.8084L12.2792 41.8084L12.2792 37.8084ZM12.2792 36.4016L12.2792 32.4016L12.2582 32.4016L12.2372 32.4018L12.2792 36.4016ZM38.1468 22.1575L34.1469 22.1345L34.1468 22.146L34.1468 22.1575L38.1468 22.1575ZM35.5862 22.1575L39.5862 22.1575L39.5862 22.1461L39.5862 22.1346L35.5862 22.1575ZM26.3915 13.0131L26.3915 17.0131L26.4031 17.0131L26.4147 17.013L26.3915 13.0131ZM26.3915 10.4339L26.4147 6.434L26.4031 6.43394L26.3915 6.43394L26.3915 10.4339ZM35.5863 1.28958L39.5862 1.31254L39.5863 1.30106L39.5863 1.28958L35.5863 1.28958ZM38.1468 1.28958L34.1468 1.28958L34.1468 1.30099L34.1469 1.3124L38.1468 1.28958ZM47.3416 10.4339L47.3416 6.43394L47.33 6.43394L47.3183 6.434L47.3416 10.4339ZM47.3416 13.0131L47.3183 17.013L47.33 17.0131L47.3416 17.0131L47.3416 13.0131ZM75.3334 77.6977L71.3335 77.6641L71.3334 77.6809L71.3334 77.6977L75.3334 77.6977ZM94.1594 58.9987L94.1367 62.9986L94.1481 62.9987L94.1594 62.9987L94.1594 58.9987ZM94.1594 53.7231L94.1594 49.7231L94.1481 49.7231L94.1367 49.7231L94.1594 53.7231ZM75.3334 35.024L71.3334 35.024L71.3334 35.0408L71.3335 35.0576L75.3334 35.024ZM70.0958 35.024L74.0957 35.0576L74.0958 35.0408L74.0958 35.024L70.0958 35.024ZM51.2698 53.7231L51.2925 49.7231L51.2811 49.7231L51.2698 49.7231L51.2698 53.7231ZM51.2698 58.9987L51.2698 62.9987L51.2811 62.9987L51.2925 62.9986L51.2698 58.9987ZM70.0958 77.6977L74.0958 77.6977L74.0958 77.6809L74.0957 77.664L70.0958 77.6977ZM119.562 84.3355C118.111 84.3355 116.987 83.1621 116.987 81.7716L124.987 81.7716C124.987 78.7985 122.584 76.3355 119.562 76.3355L119.562 84.3355ZM122.136 81.7716C122.136 83.1621 121.012 84.3355 119.562 84.3355L119.562 76.3355C116.539 76.3355 114.136 78.7985 114.136 81.7716L122.136 81.7716ZM107.931 95.8831C115.752 95.9241 122.055 89.6078 122.136 81.813L114.136 81.7302C114.1 85.19 111.325 87.9008 107.973 87.8832L107.931 95.8831ZM110.526 93.3193C110.526 94.7097 109.402 95.8832 107.952 95.8832L107.952 87.8832C104.93 87.8832 102.526 90.3462 102.526 93.3193L110.526 93.3193ZM107.952 90.7554C109.402 90.7554 110.526 91.9288 110.526 93.3193L102.526 93.3193C102.526 96.2925 104.93 98.7554 107.952 98.7554L107.952 90.7554ZM122.136 104.826C122.055 97.0308 115.752 90.7144 107.931 90.7555L107.973 98.7554C111.325 98.7378 114.1 101.449 114.136 104.908L122.136 104.826ZM119.562 102.303C121.012 102.303 122.136 103.477 122.136 104.867L114.136 104.867C114.136 107.84 116.539 110.303 119.562 110.303L119.562 102.303ZM116.987 104.867C116.987 103.477 118.111 102.303 119.562 102.303L119.562 110.303C122.584 110.303 124.987 107.84 124.987 104.867L116.987 104.867ZM131.192 90.7555C123.371 90.7144 117.068 97.0308 116.987 104.826L124.987 104.908C125.023 101.449 127.798 98.7378 131.15 98.7554L131.192 90.7555ZM128.597 93.3193C128.597 91.9288 129.721 90.7554 131.171 90.7554L131.171 98.7554C134.193 98.7554 136.597 96.2925 136.597 93.3193L128.597 93.3193ZM131.171 95.8832C129.721 95.8832 128.597 94.7097 128.597 93.3193L136.597 93.3193C136.597 90.3462 134.193 87.8832 131.171 87.8832L131.171 95.8832ZM116.987 81.813C117.068 89.6078 123.371 95.9241 131.192 95.8831L131.15 87.8832C127.798 87.9008 125.023 85.19 124.987 81.7302L116.987 81.813ZM114.803 26.5831C114.803 24.0203 112.719 21.8797 110.105 21.8797L110.105 29.8797C108.247 29.8797 106.803 28.3839 106.803 26.5831L114.803 26.5831ZM115.853 27.6244C115.315 27.6301 114.81 27.192 114.803 26.5417L106.803 26.6245C106.855 31.6015 110.889 35.677 115.937 35.624L115.853 27.6244ZM120.594 32.3276C120.594 29.7648 118.51 27.6242 115.895 27.6242L115.895 35.6242C114.037 35.6242 112.594 34.1284 112.594 32.3276L120.594 32.3276ZM115.895 37.031C118.51 37.031 120.594 34.8905 120.594 32.3276L112.594 32.3276C112.594 30.5268 114.037 29.031 115.895 29.031L115.895 37.031ZM114.803 38.1135C114.81 37.4632 115.315 37.0252 115.853 37.0308L115.937 29.0313C110.889 28.9783 106.855 33.0538 106.803 38.0308L114.803 38.1135ZM110.105 42.7756C112.72 42.7756 114.803 40.6349 114.803 38.0722L106.803 38.0722C106.803 36.2714 108.247 34.7756 110.105 34.7756L110.105 42.7756ZM105.406 38.0722C105.406 40.635 107.49 42.7756 110.105 42.7756L110.105 34.7756C111.963 34.7756 113.406 36.2714 113.406 38.0722L105.406 38.0722ZM104.356 37.0308C104.88 37.0253 105.4 37.4772 105.407 38.114L113.406 38.0304C113.355 33.0985 109.336 28.9781 104.272 29.0313L104.356 37.0308ZM99.6161 32.3276C99.6161 34.8905 101.7 37.031 104.314 37.031L104.314 29.031C106.173 29.031 107.616 30.5268 107.616 32.3276L99.6161 32.3276ZM104.314 27.6242C101.7 27.6242 99.6161 29.7648 99.6161 32.3276L107.616 32.3276C107.616 34.1284 106.173 35.6242 104.314 35.6242L104.314 27.6242ZM105.407 26.5417C105.4 27.192 104.895 27.6301 104.356 27.6244L104.272 35.624C109.321 35.677 113.355 31.6015 113.406 26.6245L105.407 26.5417ZM110.105 21.8797C107.49 21.8797 105.406 24.0203 105.406 26.5831L113.406 26.5831C113.406 28.3839 111.963 29.8797 110.105 29.8797L110.105 21.8797ZM6.4888 34.657C4.63063 34.657 3.18713 33.1612 3.18713 31.3604L11.1871 31.3604C11.1871 28.7977 9.1035 26.657 6.4888 26.657L6.4888 34.657ZM9.79045 31.3604C9.79045 33.1612 8.34688 34.657 6.4888 34.657L6.4888 26.657C3.87417 26.657 1.79045 28.7976 1.79045 31.3604L9.79045 31.3604ZM0.656431 40.4013C5.70465 40.4543 9.73876 36.3788 9.79024 31.4018L1.79066 31.3191C1.78393 31.9694 1.27884 32.4074 0.740355 32.4018L0.656431 40.4013ZM4.00006 37.105C4.00006 38.9057 2.55652 40.4016 0.698393 40.4016L0.698393 32.4016C-1.91626 32.4016 -3.99994 34.5422 -3.99994 37.105L4.00006 37.105ZM0.698393 33.8084C2.55656 33.8084 4.00006 35.3042 4.00006 37.105L-3.99994 37.105C-3.99994 39.6677 -1.91631 41.8084 0.698393 41.8084L0.698393 33.8084ZM9.79023 42.8077C9.73869 37.8758 5.71989 33.7555 0.656432 33.8086L0.740355 41.8082C1.26359 41.8027 1.78401 42.2545 1.79066 42.8913L9.79023 42.8077ZM6.4888 39.5529C8.34682 39.5529 9.79045 41.0486 9.79045 42.8495L1.79045 42.8495C1.79045 45.4124 3.87423 47.5529 6.4888 47.5529L6.4888 39.5529ZM3.18713 42.8495C3.18713 41.0487 4.63068 39.5529 6.4888 39.5529L6.4888 47.5529C9.10344 47.5529 11.1871 45.4123 11.1871 42.8495L3.18713 42.8495ZM12.3212 33.8086C7.27292 33.7556 3.23881 37.8311 3.18735 42.8081L11.1869 42.8909C11.1936 42.2406 11.6987 41.8025 12.2372 41.8082L12.3212 33.8086ZM8.97752 37.105C8.97752 35.3042 10.421 33.8084 12.2792 33.8084L12.2792 41.8084C14.8939 41.8084 16.9775 39.6677 16.9775 37.105L8.97752 37.105ZM12.2792 40.4016C10.4211 40.4016 8.97752 38.9057 8.97752 37.105L16.9775 37.105C16.9775 34.5422 14.8939 32.4016 12.2792 32.4016L12.2792 40.4016ZM3.18735 31.4018C3.23881 36.3788 7.27292 40.4543 12.3212 40.4013L12.2372 32.4018C11.6987 32.4074 11.1936 31.9694 11.1869 31.3191L3.18735 31.4018ZM36.8665 27.4471C39.8013 27.4471 42.1468 25.0427 42.1468 22.1575L34.1468 22.1575C34.1468 20.6791 35.3285 19.4471 36.8665 19.4471L36.8665 27.4471ZM31.5862 22.1575C31.5862 25.0427 33.9318 27.4471 36.8665 27.4471L36.8665 19.4471C38.4046 19.4471 39.5862 20.6791 39.5862 22.1575L31.5862 22.1575ZM26.4147 17.013C29.2266 16.9967 31.5697 19.2771 31.5863 22.1803L39.5862 22.1346C39.5446 14.8383 33.624 8.97093 26.3682 9.01318L26.4147 17.013ZM21.1112 11.7235C21.1112 14.6087 23.4567 17.0131 26.3915 17.0131L26.3915 9.01311C27.9295 9.01311 29.1112 10.2451 29.1112 11.7235L21.1112 11.7235ZM26.3915 6.43394C23.4567 6.43394 21.1112 8.83832 21.1112 11.7235L29.1112 11.7235C29.1112 13.2019 27.9295 14.4339 26.3915 14.4339L26.3915 6.43394ZM31.5863 1.26663C31.5698 4.14902 29.2182 6.45033 26.4147 6.434L26.3682 14.4339C33.6324 14.4762 39.5445 8.571 39.5862 1.31254L31.5863 1.26663ZM36.8665 -4C33.9318 -4 31.5863 -1.59563 31.5863 1.28958L39.5863 1.28958C39.5863 2.76797 38.4046 4 36.8665 4L36.8665 -4ZM42.1468 1.28958C42.1468 -1.59563 39.8013 -4 36.8665 -4L36.8665 4C35.3285 4 34.1468 2.76797 34.1468 1.28958L42.1468 1.28958ZM47.3183 6.434C44.5064 6.45038 42.1633 4.16991 42.1468 1.26677L34.1469 1.3124C34.1885 8.60873 40.1091 14.4761 47.3649 14.4339L47.3183 6.434ZM52.6219 11.7235C52.6219 8.83832 50.2764 6.43394 47.3416 6.43394L47.3416 14.4339C45.8036 14.4339 44.6219 13.2019 44.6219 11.7235L52.6219 11.7235ZM47.3416 17.0131C50.2763 17.0131 52.6219 14.6087 52.6219 11.7235L44.6219 11.7235C44.6219 10.2451 45.8036 9.01311 47.3416 9.01311L47.3416 17.0131ZM42.1468 22.1804C42.1633 19.298 44.5148 16.9967 47.3183 17.013L47.3649 9.01318C40.1007 8.97088 34.1885 14.876 34.1469 22.1345L42.1468 22.1804ZM71.3334 77.6977C71.3334 76.9813 71.9331 76.3355 72.7146 76.3355L72.7146 84.3355C76.4059 84.3355 79.3334 81.3449 79.3334 77.6977L71.3334 77.6977ZM94.1821 54.9987C81.6202 54.9274 71.4391 65.0823 71.3335 77.6641L79.3332 77.7312C79.4023 69.5038 86.0395 62.9526 94.1367 62.9986L94.1821 54.9987ZM92.7782 56.3609C92.7782 55.6445 93.3779 54.9987 94.1594 54.9987L94.1594 62.9987C97.8507 62.9987 100.778 60.0081 100.778 56.3609L92.7782 56.3609ZM94.1594 57.7231C93.3779 57.7231 92.7782 57.0772 92.7782 56.3609L100.778 56.3609C100.778 52.7136 97.8507 49.7231 94.1594 49.7231L94.1594 57.7231ZM71.3335 35.0576C71.4391 47.6395 81.6202 57.7943 94.1821 57.723L94.1367 49.7231C86.0395 49.7691 79.4023 43.2179 79.3332 34.9905L71.3335 35.0576ZM72.7146 36.3862C71.9331 36.3862 71.3334 35.7404 71.3334 35.024L79.3334 35.024C79.3334 31.3768 76.4059 28.3862 72.7146 28.3862L72.7146 36.3862ZM74.0958 35.024C74.0958 35.7404 73.4961 36.3862 72.7146 36.3862L72.7146 28.3862C69.0233 28.3862 66.0958 31.3768 66.0958 35.024L74.0958 35.024ZM51.2471 57.723C63.809 57.7943 73.9901 47.6395 74.0957 35.0576L66.096 34.9905C66.0269 43.2179 59.3897 49.7691 51.2925 49.7231L51.2471 57.723ZM52.651 56.3609C52.651 57.0772 52.0513 57.7231 51.2698 57.7231L51.2698 49.7231C47.5785 49.7231 44.651 52.7136 44.651 56.3609L52.651 56.3609ZM51.2698 54.9987C52.0513 54.9987 52.651 55.6445 52.651 56.3609L44.651 56.3609C44.651 60.0081 47.5785 62.9987 51.2698 62.9987L51.2698 54.9987ZM74.0957 77.664C73.9901 65.1157 63.8131 54.9274 51.2471 54.9987L51.2925 62.9986C59.3856 62.9527 66.027 69.529 66.096 77.7313L74.0957 77.664ZM72.7146 76.3355C73.4961 76.3355 74.0958 76.9813 74.0958 77.6977L66.0958 77.6977C66.0958 81.3449 69.0233 84.3355 72.7146 84.3355L72.7146 76.3355Z" fill="#FFA800" fill-opacity="0.4" mask="url(#path-1-inside-1_1_177)"/>
</svg>
