<svg width="81" height="117" viewBox="0 0 81 117" fill="none" xmlns="http://www.w3.org/2000/svg">
<mask id="path-1-inside-1_1_360" fill="white">
<path fill-rule="evenodd" clip-rule="evenodd" d="M25.8797 110.105C25.8797 110.483 26.2021 110.803 26.5831 110.803C29.3967 110.832 31.6535 113.102 31.6242 115.895C31.6242 116.273 31.9466 116.593 32.3276 116.593C32.7086 116.593 33.031 116.273 33.031 115.895C33.0017 113.102 35.2585 110.832 38.0722 110.803C38.4532 110.803 38.7756 110.483 38.7756 110.105C38.7756 109.726 38.4532 109.406 38.0722 109.406C35.2878 109.377 33.0017 107.108 33.031 104.314C33.031 103.936 32.7086 103.616 32.3276 103.616C31.9466 103.616 31.6242 103.936 31.6242 104.314C31.6535 107.108 29.3967 109.377 26.5831 109.406C26.2021 109.406 25.8797 109.726 25.8797 110.105ZM31.3604 7.18695C30.9794 7.18695 30.657 6.86688 30.657 6.48862C30.657 6.11034 30.9794 5.79027 31.3604 5.79027C34.1741 5.76117 36.4309 3.49156 36.4016 0.698212C36.4016 0.319946 36.724 -0.00012207 37.105 -0.00012207C37.486 -0.00012207 37.8084 0.319946 37.8084 0.698212C37.7791 3.49156 40.0652 5.76117 42.8495 5.79027C43.2305 5.79027 43.5529 6.11034 43.5529 6.48862C43.5529 6.86688 43.2305 7.18695 42.8495 7.18695C40.0359 7.21605 37.7791 9.48565 37.8084 12.279C37.8084 12.6573 37.486 12.9773 37.105 12.9773C36.724 12.9773 36.4016 12.6573 36.4016 12.279C36.4309 9.48565 34.1741 7.21605 31.3604 7.18695ZM22.1575 38.1466C22.8609 38.1466 23.4471 37.5647 23.4471 36.8664C23.4471 36.168 22.8609 35.5861 22.1575 35.5861C17.0577 35.557 12.9838 31.4251 13.0131 26.3913C13.0131 25.6929 12.4269 25.111 11.7235 25.111C11.0201 25.111 10.4339 25.6929 10.4339 26.3913C10.4632 31.4251 6.36001 35.557 1.28959 35.5861C0.586175 35.5861 0 36.168 0 36.8664C0 37.5647 0.586175 38.1466 1.28959 38.1466C6.38932 38.1757 10.4632 42.3076 10.4339 47.3414C10.4339 48.0398 11.0201 48.6217 11.7235 48.6217C12.4269 48.6217 13.0131 48.0398 13.0131 47.3414C12.9838 42.3076 17.087 38.1757 22.1575 38.1466ZM80.3355 72.7144C80.3355 74.1693 79.1631 75.3332 77.6977 75.3332C67.2931 75.4205 58.94 83.8296 58.9987 94.1592C58.9987 95.6141 57.8263 96.778 56.3609 96.778C54.8954 96.778 53.7231 95.6141 53.7231 94.1592C53.7817 83.8296 45.4287 75.4205 35.024 75.3332C33.5586 75.3332 32.3862 74.1693 32.3862 72.7144C32.3862 71.2595 33.5586 70.0956 35.024 70.0956C45.4287 70.0084 53.7817 61.5992 53.7231 51.2696C53.7231 49.8147 54.8954 48.6508 56.3609 48.6508C57.8263 48.6508 58.9987 49.8147 58.9987 51.2696C58.94 61.5992 67.3224 70.0084 77.6977 70.0956C79.1631 70.0956 80.3355 71.2595 80.3355 72.7144Z"/>
</mask>
<path d="M26.5831 110.803V105.803H26.609L26.6348 105.803L26.5831 110.803ZM31.6242 115.895H26.6242V115.869L26.6245 115.843L31.6242 115.895ZM33.031 115.895L38.0308 115.843L38.031 115.869V115.895H33.031ZM38.0722 110.803L38.0205 105.803L38.0463 105.803H38.0722V110.803ZM38.0722 109.406V114.406H38.046L38.0199 114.406L38.0722 109.406ZM33.031 104.314H38.031V104.34L38.0308 104.367L33.031 104.314ZM31.6242 104.314L26.6245 104.367L26.6242 104.34V104.314H31.6242ZM26.5831 109.406L26.6348 114.406L26.609 114.406H26.5831V109.406ZM31.3604 7.18695V2.18695H31.3863L31.4121 2.18722L31.3604 7.18695ZM31.3604 5.79027L31.4121 10.79L31.3863 10.7903H31.3604V5.79027ZM36.4016 0.698212L31.4018 0.750671L31.4016 0.724442V0.698212H36.4016ZM37.8084 0.698212H42.8084V0.724442L42.8081 0.750671L37.8084 0.698212ZM42.8495 5.79027V10.7903H42.8234L42.7972 10.79L42.8495 5.79027ZM42.8495 7.18695L42.7978 2.18722L42.8236 2.18695H42.8495V7.18695ZM37.8084 12.279L42.8081 12.2265L42.8084 12.2528V12.279H37.8084ZM36.4016 12.279H31.4016V12.2528L31.4018 12.2265L36.4016 12.279ZM22.1575 38.1466L22.1288 33.1467L22.1431 33.1466H22.1575V38.1466ZM22.1575 35.5861V40.5861H22.1432L22.1289 40.586L22.1575 35.5861ZM13.0131 26.3913H18.0131V26.4058L18.013 26.4204L13.0131 26.3913ZM10.4339 26.3913L5.43403 26.4204L5.43394 26.4058V26.3913H10.4339ZM1.28959 35.5861L1.31828 40.586L1.30393 40.5861H1.28959L1.28959 35.5861ZM1.28959 38.1466L1.28959 33.1466H1.30385L1.31811 33.1467L1.28959 38.1466ZM10.4339 47.3414H5.43394V47.3269L5.43403 47.3123L10.4339 47.3414ZM13.0131 47.3414L18.013 47.3123L18.0131 47.3269V47.3414H13.0131ZM77.6977 75.3332L77.6557 70.3334L77.6767 70.3332H77.6977V75.3332ZM58.9987 94.1592L63.9986 94.1309L63.9987 94.1451V94.1592H58.9987ZM53.7231 94.1592H48.7231V94.1451L48.7232 94.1309L53.7231 94.1592ZM35.024 75.3332V70.3332H35.045L35.066 70.3334L35.024 75.3332ZM35.024 70.0956L35.066 75.0955L35.045 75.0956H35.024V70.0956ZM53.7231 51.2696L48.7232 51.298L48.7231 51.2838V51.2696H53.7231ZM58.9987 51.2696H63.9987V51.2838L63.9986 51.298L58.9987 51.2696ZM77.6977 70.0956V75.0956H77.6767L77.6556 75.0955L77.6977 70.0956ZM26.5831 115.803C23.4748 115.803 20.8797 113.278 20.8797 110.105H30.8797C30.8797 107.687 28.9293 105.803 26.5831 105.803V115.803ZM26.6245 115.843C26.6246 115.834 26.6239 115.832 26.6243 115.835C26.6247 115.837 26.6254 115.839 26.6262 115.841C26.6277 115.845 26.6268 115.84 26.6189 115.833C26.6109 115.825 26.6006 115.817 26.5893 115.813C26.584 115.81 26.5777 115.808 26.5698 115.806C26.5621 115.805 26.5498 115.803 26.5314 115.803L26.6348 105.803C32.1526 105.86 36.6828 110.336 36.6239 115.948L26.6245 115.843ZM32.3276 121.593C29.2194 121.593 26.6242 119.069 26.6242 115.895H36.6242C36.6242 113.478 34.6738 111.593 32.3276 111.593V121.593ZM38.031 115.895C38.031 119.069 35.4359 121.593 32.3276 121.593V111.593C29.9814 111.593 28.031 113.478 28.031 115.895H38.031ZM38.1239 115.803C38.1055 115.803 38.0932 115.805 38.0855 115.806C38.0776 115.808 38.0712 115.81 38.0659 115.813C38.0546 115.817 38.0443 115.825 38.0364 115.833C38.0285 115.84 38.0276 115.845 38.029 115.841C38.0299 115.839 38.0306 115.837 38.031 115.835C38.0314 115.832 38.0307 115.834 38.0308 115.843L28.0313 115.948C27.9724 110.336 32.5026 105.86 38.0205 105.803L38.1239 115.803ZM43.7756 110.105C43.7756 113.278 41.1804 115.803 38.0722 115.803V105.803C35.726 105.803 33.7756 107.687 33.7756 110.105H43.7756ZM38.0722 104.406C41.1804 104.406 43.7756 106.931 43.7756 110.105H33.7756C33.7756 112.522 35.726 114.406 38.0722 114.406V104.406ZM38.0308 104.367C38.0307 104.37 38.031 104.369 38.0301 104.364C38.0292 104.359 38.0279 104.356 38.027 104.353C38.0254 104.35 38.0278 104.357 38.0403 104.37C38.053 104.382 38.0682 104.392 38.0821 104.398C38.0929 104.403 38.1049 104.406 38.1244 104.407L38.0199 114.406C32.5511 114.349 27.9722 109.893 28.0313 104.262L38.0308 104.367ZM32.3276 98.6159C35.4359 98.6159 38.031 101.141 38.031 104.314H28.031C28.031 106.731 29.9814 108.616 32.3276 108.616V98.6159ZM26.6242 104.314C26.6242 101.14 29.2194 98.6159 32.3276 98.6159V108.616C34.6738 108.616 36.6242 106.731 36.6242 104.314H26.6242ZM26.5314 104.407C26.5498 104.406 26.5621 104.405 26.5698 104.403C26.5777 104.401 26.584 104.399 26.5893 104.397C26.6006 104.392 26.6109 104.385 26.6189 104.377C26.6268 104.369 26.6277 104.365 26.6262 104.368C26.6254 104.37 26.6247 104.373 26.6243 104.375C26.6239 104.377 26.6246 104.375 26.6245 104.367L36.6239 104.262C36.6828 109.874 32.1526 114.349 26.6348 114.406L26.5314 104.407ZM20.8797 110.105C20.8797 106.931 23.4748 104.406 26.5831 104.406V114.406C28.9294 114.406 30.8797 112.522 30.8797 110.105H20.8797ZM35.657 6.48862C35.657 4.07133 33.7066 2.18695 31.3604 2.18695V12.187C28.2522 12.187 25.657 9.66243 25.657 6.48862H35.657ZM31.3604 10.7903C33.7067 10.7903 35.657 8.90578 35.657 6.48862H25.657C25.657 3.3149 28.2521 0.790268 31.3604 0.790268V10.7903ZM41.4013 0.645752C41.4602 6.25769 36.93 10.7329 31.4121 10.79L31.3087 0.790535C31.3271 0.790344 31.3394 0.78846 31.3471 0.786827C31.355 0.785141 31.3614 0.783005 31.3667 0.780716C31.378 0.775879 31.3883 0.768745 31.3962 0.760712C31.4041 0.752762 31.405 0.748726 31.4036 0.752296C31.4027 0.75425 31.402 0.756638 31.4016 0.758591C31.4012 0.760834 31.4019 0.758804 31.4018 0.750671L41.4013 0.645752ZM37.105 4.99988C39.4512 4.99988 41.4016 3.11544 41.4016 0.698212H31.4016C31.4016 -2.47555 33.9967 -5.00012 37.105 -5.00012V4.99988ZM32.8084 0.698212C32.8084 3.11549 34.7588 4.99988 37.105 4.99988V-5.00012C40.2132 -5.00012 42.8084 -2.4756 42.8084 0.698212H32.8084ZM42.7972 10.79C37.3285 10.7328 32.7496 6.27675 32.8087 0.645752L42.8081 0.750671C42.8081 0.754349 42.8084 0.752785 42.8074 0.747917C42.8065 0.743393 42.8052 0.739639 42.8043 0.737434C42.8028 0.733704 42.8052 0.741058 42.8176 0.753601C42.8303 0.766373 42.8455 0.776367 42.8594 0.782341C42.8702 0.78701 42.8822 0.790337 42.9017 0.790543L42.7972 10.79ZM38.5529 6.48862C38.5529 8.90572 40.5032 10.7903 42.8495 10.7903V0.790268C45.9579 0.790268 48.5529 3.31497 48.5529 6.48862H38.5529ZM42.8495 2.18695C40.5033 2.18695 38.5529 4.0714 38.5529 6.48862H48.5529C48.5529 9.66236 45.9578 12.187 42.8495 12.187V2.18695ZM32.8087 12.3315C32.7498 6.71951 37.28 2.24429 42.7978 2.18722L42.9012 12.1867C42.8828 12.1869 42.8705 12.1888 42.8628 12.1904C42.8549 12.1921 42.8486 12.1942 42.8433 12.1965C42.832 12.2013 42.8217 12.2085 42.8137 12.2165C42.8058 12.2245 42.8049 12.2285 42.8064 12.2249C42.8072 12.223 42.8079 12.2206 42.8083 12.2186C42.8087 12.2164 42.808 12.2184 42.8081 12.2265L32.8087 12.3315ZM37.105 7.97734C34.7588 7.97734 32.8084 9.86172 32.8084 12.279H42.8084C42.8084 15.4528 40.2132 17.9773 37.105 17.9773V7.97734ZM41.4016 12.279C41.4016 9.86178 39.4512 7.97734 37.105 7.97734V17.9773C33.9967 17.9773 31.4016 15.4528 31.4016 12.279H41.4016ZM31.4121 2.18722C36.93 2.24429 41.4602 6.71951 41.4013 12.3315L31.4018 12.2265C31.4019 12.2184 31.4012 12.2164 31.4016 12.2186C31.402 12.2206 31.4027 12.223 31.4036 12.2249C31.405 12.2285 31.4041 12.2245 31.3962 12.2165C31.3883 12.2085 31.378 12.2013 31.3667 12.1965C31.3614 12.1942 31.355 12.1921 31.3471 12.1904C31.3394 12.1888 31.3271 12.1869 31.3087 12.1867L31.4121 2.18722ZM28.4471 36.8664C28.4471 40.3602 25.5881 43.1466 22.1575 43.1466V33.1466C20.1336 33.1466 18.4471 34.7692 18.4471 36.8664H28.4471ZM22.1575 30.5861C25.5881 30.5861 28.4471 33.3725 28.4471 36.8664H18.4471C18.4471 38.9635 20.1336 40.5861 22.1575 40.5861V30.5861ZM18.013 26.4204C17.9999 28.6768 19.832 30.5727 22.186 30.5862L22.1289 40.586C14.2835 40.5412 7.96772 34.1735 8.0132 26.3622L18.013 26.4204ZM11.7235 20.111C15.1542 20.111 18.0131 22.8975 18.0131 26.3913H8.01312C8.01312 28.4884 9.69969 30.111 11.7235 30.111V20.111ZM5.43394 26.3913C5.43394 22.8974 8.29288 20.111 11.7235 20.111V30.111C13.7474 30.111 15.4339 28.4884 15.4339 26.3913H5.43394ZM1.26089 30.5862C3.59627 30.5727 5.4471 28.6663 5.43403 26.4204L15.4339 26.3622C15.4794 34.184 9.12375 40.5412 1.31828 40.586L1.26089 30.5862ZM-5 36.8664C-5 33.3725 -2.14107 30.5861 1.28959 30.5861L1.28959 40.5861C3.31342 40.5861 5 38.9635 5 36.8664H-5ZM1.28959 43.1466C-2.14107 43.1466 -5 40.3602 -5 36.8664H5C5 34.7692 3.31342 33.1466 1.28959 33.1466L1.28959 43.1466ZM5.43403 47.3123C5.44716 45.0559 3.61506 43.16 1.26106 43.1466L1.31811 33.1467C9.16359 33.1915 15.4793 39.5592 15.4339 47.3706L5.43403 47.3123ZM11.7235 53.6217C8.29288 53.6217 5.43394 50.8353 5.43394 47.3414H15.4339C15.4339 45.2443 13.7474 43.6217 11.7235 43.6217L11.7235 53.6217ZM18.0131 47.3414C18.0131 50.8353 15.1542 53.6217 11.7235 53.6217L11.7235 43.6217C9.69969 43.6217 8.01312 45.2443 8.01312 47.3414H18.0131ZM22.1862 43.1466C19.8508 43.16 18 45.0664 18.013 47.3123L8.0132 47.3706C7.96766 39.5487 14.3233 33.1915 22.1288 33.1467L22.1862 43.1466ZM77.6977 70.3332C76.4359 70.3332 75.3355 71.3738 75.3355 72.7144H85.3355C85.3355 76.9648 81.8904 80.3332 77.6977 80.3332V70.3332ZM53.9987 94.1876C53.9243 81.0676 64.5296 70.4435 77.6557 70.3334L77.7396 80.333C70.0565 80.3975 63.9558 86.5917 63.9986 94.1309L53.9987 94.1876ZM56.3609 91.778C55.0991 91.778 53.9987 92.8186 53.9987 94.1592H63.9987C63.9987 98.4096 60.5536 101.778 56.3609 101.778V91.778ZM58.7231 94.1592C58.7231 92.8186 57.6227 91.778 56.3609 91.778V101.778C52.1682 101.778 48.7231 98.4096 48.7231 94.1592H58.7231ZM35.066 70.3334C48.1921 70.4435 58.7974 81.0676 58.723 94.1876L48.7232 94.1309C48.7659 86.5917 42.6652 80.3975 34.9821 80.333L35.066 70.3334ZM37.3862 72.7144C37.3862 71.3738 36.2858 70.3332 35.024 70.3332V80.3332C30.8314 80.3332 27.3862 76.9648 27.3862 72.7144H37.3862ZM35.024 75.0956C36.2858 75.0956 37.3862 74.055 37.3862 72.7144H27.3862C27.3862 68.4641 30.8314 65.0956 35.024 65.0956V75.0956ZM58.723 51.2412C58.7974 64.3613 48.1922 74.9853 35.066 75.0955L34.9821 65.0958C42.6652 65.0314 48.7659 58.8371 48.7232 51.298L58.723 51.2412ZM56.3609 53.6508C57.6227 53.6508 58.7231 52.6102 58.7231 51.2696H48.7231C48.7231 47.0192 52.1682 43.6508 56.3609 43.6508V53.6508ZM53.9987 51.2696C53.9987 52.6102 55.0991 53.6508 56.3609 53.6508V43.6508C60.5535 43.6508 63.9987 47.0192 63.9987 51.2696H53.9987ZM77.6556 75.0955C64.564 74.9853 53.9243 64.3664 53.9987 51.2412L63.9986 51.298C63.9558 58.832 70.0807 65.0314 77.7398 65.0958L77.6556 75.0955ZM75.3355 72.7144C75.3355 74.055 76.4359 75.0956 77.6977 75.0956V65.0956C81.8904 65.0956 85.3355 68.4641 85.3355 72.7144H75.3355Z" fill="white" mask="url(#path-1-inside-1_1_360)"/>
</svg>
