<svg width="133" height="107" viewBox="0 0 133 107" fill="none" xmlns="http://www.w3.org/2000/svg">
<mask id="path-1-inside-1_1_368" fill="white">
<path fill-rule="evenodd" clip-rule="evenodd" d="M11.6099 24.5315C11.6099 25.3228 12.25 25.9676 13.0357 25.9676C13.8213 25.9676 14.4614 25.3228 14.4614 24.5315C14.5196 18.9042 19.0588 14.3906 24.6455 14.4199C25.4312 14.4199 26.0713 13.7751 26.0713 12.9838C26.0713 12.1925 25.4312 11.5477 24.6455 11.5477C19.0588 11.577 14.5196 7.06343 14.4614 1.43613C14.4614 0.644799 13.8213 6.04148e-07 13.0357 5.69807e-07C12.25 5.35466e-07 11.6099 0.644799 11.6099 1.43613C11.5517 7.06343 7.01249 11.577 1.42578 11.5477C0.640148 11.5477 4.11371e-06 12.1925 4.07912e-06 12.9838C4.04453e-06 13.7751 0.640147 14.4199 1.42578 14.4199C7.01249 14.3906 11.5517 18.9042 11.6099 24.5315ZM22.4923 80.4234C22.1141 80.4234 21.794 80.101 21.794 79.72C21.7649 76.9064 19.4953 74.6496 16.7019 74.6789C16.3237 74.6789 16.0036 74.3565 16.0036 73.9755C16.0036 73.5945 16.3237 73.2721 16.7019 73.2721C19.4953 73.3014 21.7649 71.0446 21.794 68.2309C21.794 67.8499 22.1141 67.5275 22.4923 67.5275C22.8706 67.5275 23.1907 67.8499 23.1907 68.2309C23.2198 71.0153 25.4894 73.3014 28.2827 73.2721C28.661 73.2721 28.9811 73.5945 28.9811 73.9755C28.9811 74.3565 28.661 74.6789 28.2827 74.6789C25.4894 74.6496 23.2198 76.9064 23.1907 79.72C23.1907 80.101 22.8706 80.4234 22.4923 80.4234ZM125.41 74.9427C125.41 75.3237 125.73 75.6461 126.108 75.6461C126.487 75.6461 126.807 75.3237 126.807 74.9427C126.836 72.129 129.105 69.8722 131.899 69.9015C132.277 69.9015 132.597 69.5792 132.597 69.1981C132.597 68.8171 132.277 68.4947 131.899 68.4947C129.105 68.524 126.836 66.2379 126.807 63.4536C126.807 63.0726 126.487 62.7502 126.108 62.7502C125.73 62.7502 125.41 63.0726 125.41 63.4536C125.381 66.2673 123.111 68.524 120.318 68.4947C119.94 68.4947 119.62 68.8171 119.62 69.1981C119.62 69.5792 119.94 69.9015 120.318 69.9015C123.111 69.8722 125.381 72.129 125.41 74.9427ZM94.4503 84.1456C94.4503 83.4422 95.0323 82.856 95.7306 82.856C96.429 82.856 97.0109 83.4422 97.0109 84.1456C97.04 89.2454 101.172 93.3193 106.206 93.29C106.904 93.29 107.486 93.8762 107.486 94.5796C107.486 95.283 106.904 95.8692 106.206 95.8692C101.172 95.8399 97.04 99.9431 97.0109 105.014C97.0109 105.717 96.429 106.303 95.7306 106.303C95.0323 106.303 94.4503 105.717 94.4503 105.014C94.4212 99.9138 90.2894 95.8399 85.2555 95.8692C84.5572 95.8692 83.9753 95.283 83.9753 94.5796C83.9753 93.8762 84.5572 93.29 85.2555 93.29C90.2894 93.3193 94.4213 89.2161 94.4503 84.1456ZM59.8826 25.9676C58.4277 25.9676 57.2638 27.14 57.2638 28.6054C57.1765 39.0101 48.7673 47.3631 38.4377 47.3044C36.9829 47.3044 35.819 48.4768 35.819 49.9422C35.819 51.4077 36.9829 52.58 38.4377 52.58C48.7673 52.5214 57.1765 60.8744 57.2638 71.2791C57.2638 72.7445 58.4277 73.9169 59.8826 73.9169C61.3374 73.9169 62.5013 72.7445 62.5013 71.2791C62.5886 60.8744 70.9978 52.5214 81.3274 52.58C82.7823 52.58 83.9462 51.4077 83.9462 49.9422C83.9462 48.4768 82.7823 47.3044 81.3274 47.3044C70.9978 47.3631 62.5886 38.9807 62.5013 28.6054C62.5013 27.14 61.3374 25.9676 59.8826 25.9676Z"/>
</mask>
<path d="M11.6099 24.5315L16.6099 24.5315L16.6099 24.5056L16.6096 24.4798L11.6099 24.5315ZM14.4614 24.5315L9.4617 24.4798L9.46144 24.5056L9.46144 24.5315L14.4614 24.5315ZM24.6455 14.4199L24.6193 19.4199L24.6324 19.4199L24.6455 19.4199L24.6455 14.4199ZM24.6455 11.5477L24.6455 6.54768L24.6324 6.54768L24.6193 6.54775L24.6455 11.5477ZM14.4614 1.43613L9.46144 1.43613L9.46144 1.46199L9.46171 1.48784L14.4614 1.43613ZM11.6099 1.43613L16.6096 1.48784L16.6099 1.46199L16.6099 1.43614L11.6099 1.43613ZM1.42578 11.5477L1.45201 6.54775L1.43889 6.54768L1.42578 6.54768L1.42578 11.5477ZM1.42578 14.4199L1.42578 19.4199L1.4389 19.4199L1.45201 19.4199L1.42578 14.4199ZM21.794 79.72L26.794 79.72L26.794 79.6941L26.7937 79.6683L21.794 79.72ZM16.7019 74.6789L16.7019 79.6789L16.7282 79.6789L16.7544 79.6786L16.7019 74.6789ZM16.7019 73.2721L16.7544 68.2723L16.7282 68.2721L16.7019 68.2721L16.7019 73.2721ZM21.794 68.2309L26.7937 68.2827L26.794 68.2568L26.794 68.2309L21.794 68.2309ZM23.1907 68.2309L18.1907 68.2309L18.1907 68.2571L18.1909 68.2832L23.1907 68.2309ZM28.2827 73.2721L28.2827 68.2721L28.2565 68.2721L28.2303 68.2723L28.2827 73.2721ZM28.2827 74.6789L28.2303 79.6786L28.2565 79.6789L28.2827 79.6789L28.2827 74.6789ZM23.1907 79.72L18.1909 79.6683L18.1907 79.6941L18.1907 79.72L23.1907 79.72ZM125.41 74.9427L130.41 74.9427L130.41 74.9168L130.41 74.891L125.41 74.9427ZM126.807 74.9427L121.807 74.891L121.807 74.9168L121.807 74.9427L126.807 74.9427ZM131.899 69.9015L131.846 74.9013L131.873 74.9015L131.899 74.9015L131.899 69.9015ZM131.899 68.4947L131.899 63.4947L131.873 63.4947L131.846 63.495L131.899 68.4947ZM126.807 63.4536L121.807 63.4536L121.807 63.4797L121.807 63.5059L126.807 63.4536ZM125.41 63.4536L130.41 63.5053L130.41 63.4795L130.41 63.4536L125.41 63.4536ZM120.318 68.4947L120.37 63.495L120.344 63.4947L120.318 63.4947L120.318 68.4947ZM120.318 69.9015L120.318 74.9015L120.344 74.9015L120.37 74.9013L120.318 69.9015ZM94.4503 84.1456L99.4503 84.1743L99.4503 84.16L99.4503 84.1456L94.4503 84.1456ZM97.0109 84.1456L92.0109 84.1456L92.0109 84.1599L92.011 84.1742L97.0109 84.1456ZM106.206 93.29L106.206 88.29L106.191 88.29L106.177 88.2901L106.206 93.29ZM106.206 95.8692L106.177 100.869L106.191 100.869L106.206 100.869L106.206 95.8692ZM97.0109 105.014L92.011 104.985L92.0109 104.999L92.0109 105.014L97.0109 105.014ZM94.4503 105.014L99.4503 105.014L99.4503 104.999L99.4503 104.985L94.4503 105.014ZM85.2555 95.8692L85.2555 100.869L85.2701 100.869L85.2847 100.869L85.2555 95.8692ZM85.2555 93.29L85.2847 88.2901L85.2701 88.29L85.2555 88.29L85.2555 93.29ZM57.2638 28.6054L62.2636 28.6474L62.2638 28.6264L62.2638 28.6054L57.2638 28.6054ZM38.4377 47.3044L38.4661 42.3045L38.4519 42.3044L38.4377 42.3044L38.4377 47.3044ZM38.4377 52.58L38.4377 57.58L38.4519 57.58L38.4661 57.58L38.4377 52.58ZM57.2638 71.2791L62.2638 71.2791L62.2638 71.2581L62.2636 71.2371L57.2638 71.2791ZM62.5013 71.2791L57.5015 71.2371L57.5013 71.2581L57.5013 71.2791L62.5013 71.2791ZM81.3274 52.58L81.299 57.58L81.3132 57.58L81.3274 57.58L81.3274 52.58ZM81.3274 47.3044L81.3274 42.3044L81.3132 42.3044L81.299 42.3045L81.3274 47.3044ZM62.5013 28.6054L57.5013 28.6054L57.5013 28.6265L57.5015 28.6475L62.5013 28.6054ZM13.0357 20.9676C15.0455 20.9676 16.6099 22.5956 16.6099 24.5315L6.60989 24.5315C6.60989 28.05 9.45454 30.9676 13.0357 30.9676L13.0357 20.9676ZM9.46144 24.5315C9.46144 22.5956 11.0258 20.9676 13.0357 20.9676L13.0357 30.9676C16.6168 30.9676 19.4614 28.05 19.4614 24.5315L9.46144 24.5315ZM24.6718 9.42001C16.2919 9.37605 9.54792 16.1431 9.4617 24.4798L19.4612 24.5832C19.4913 21.6653 21.8258 19.4052 24.6193 19.4199L24.6718 9.42001ZM21.0713 12.9838C21.0713 11.0479 22.6357 9.41995 24.6455 9.41995L24.6455 19.4199C28.2267 19.4199 31.0713 16.5023 31.0713 12.9838L21.0713 12.9838ZM24.6455 16.5477C22.6358 16.5477 21.0713 14.9198 21.0713 12.9838L31.0713 12.9838C31.0713 9.46517 28.2266 6.54768 24.6455 6.54768L24.6455 16.5477ZM9.46171 1.48784C9.54792 9.82455 16.2919 16.5916 24.6718 16.5476L24.6193 6.54775C21.8258 6.56241 19.4913 4.30231 19.4612 1.38443L9.46171 1.48784ZM13.0357 5C11.0258 5 9.46144 3.37202 9.46144 1.43613L19.4614 1.43614C19.4614 -2.08242 16.6168 -5 13.0357 -5L13.0357 5ZM16.6099 1.43614C16.6099 3.37203 15.0455 5 13.0357 5L13.0357 -5C9.45454 -5 6.60989 -2.08243 6.60989 1.43613L16.6099 1.43614ZM1.39955 16.5476C9.77943 16.5916 16.5234 9.82456 16.6096 1.48784L6.61016 1.38443C6.57998 4.30231 4.24555 6.56241 1.45201 6.54775L1.39955 16.5476ZM5 12.9838C5 14.9198 3.43558 16.5477 1.42578 16.5477L1.42578 6.54768C-2.15528 6.54768 -5 9.46517 -5 12.9838L5 12.9838ZM1.42578 9.41994C3.43568 9.41994 5 11.048 5 12.9838L-5 12.9838C-5 16.5023 -2.15539 19.4199 1.42578 19.4199L1.42578 9.41994ZM16.6096 24.4798C16.5234 16.1431 9.77943 9.37605 1.39955 9.42001L1.45201 19.4199C4.24555 19.4052 6.57998 21.6653 6.61016 24.5832L16.6096 24.4798ZM16.794 79.72C16.794 82.8283 19.3186 85.4234 22.4923 85.4234L22.4923 75.4234C24.9095 75.4234 26.794 77.3738 26.794 79.72L16.794 79.72ZM16.7544 79.6786C16.7625 79.6785 16.7646 79.6792 16.7623 79.6788C16.7604 79.6784 16.758 79.6777 16.756 79.6769C16.7525 79.6754 16.7565 79.6763 16.7644 79.6842C16.7725 79.6922 16.7796 79.7025 16.7844 79.7138C16.7867 79.7191 16.7889 79.7254 16.7906 79.7333C16.7922 79.741 16.7941 79.7533 16.7943 79.7717L26.7937 79.6683C26.7367 74.1505 22.2614 69.6203 16.6495 69.6792L16.7544 79.6786ZM11.0036 73.9755C11.0036 77.0837 13.5282 79.6789 16.7019 79.6789L16.7019 69.6789C19.1192 69.6789 21.0036 71.6293 21.0036 73.9755L11.0036 73.9755ZM16.7019 68.2721C13.5282 68.2721 11.0036 70.8672 11.0036 73.9755L21.0036 73.9755C21.0036 76.3217 19.1191 78.2721 16.7019 78.2721L16.7019 68.2721ZM16.7943 68.1792C16.7941 68.1976 16.7922 68.2099 16.7906 68.2176C16.7889 68.2255 16.7867 68.2319 16.7844 68.2372C16.7796 68.2485 16.7725 68.2588 16.7644 68.2667C16.7565 68.2746 16.7525 68.2755 16.756 68.2741C16.758 68.2732 16.7604 68.2725 16.7623 68.2721C16.7646 68.2717 16.7625 68.2724 16.7544 68.2723L16.6495 78.2718C22.2614 78.3307 26.7367 73.8005 26.7937 68.2827L16.7943 68.1792ZM22.4923 62.5275C19.3185 62.5275 16.794 65.1227 16.794 68.2309L26.794 68.2309C26.794 70.5771 24.9096 72.5275 22.4923 72.5275L22.4923 62.5275ZM28.1907 68.2309C28.1907 65.1227 25.6661 62.5275 22.4923 62.5275L22.4923 72.5275C20.0751 72.5275 18.1907 70.5771 18.1907 68.2309L28.1907 68.2309ZM28.2303 68.2723C28.2266 68.2724 28.2281 68.2721 28.233 68.273C28.2375 68.2739 28.2413 68.2752 28.2435 68.2761C28.2472 68.2777 28.2399 68.2753 28.2273 68.2628C28.2146 68.2501 28.2046 68.2349 28.1986 68.221C28.1939 68.2102 28.1906 68.1982 28.1904 68.1787L18.1909 68.2832C18.2481 73.752 22.7042 78.3309 28.3352 78.2718L28.2303 68.2723ZM33.9811 73.9755C33.9811 70.8672 31.4565 68.2721 28.2827 68.2721L28.2827 78.2721C25.8655 78.2721 23.9811 76.3217 23.9811 73.9755L33.9811 73.9755ZM28.2827 79.6789C31.4565 79.6789 33.9811 77.0837 33.9811 73.9755L23.9811 73.9755C23.9811 71.6293 25.8655 69.6789 28.2827 69.6789L28.2827 79.6789ZM28.1904 79.7717C28.1906 79.7533 28.1925 79.741 28.1941 79.7333C28.1958 79.7254 28.1979 79.7191 28.2002 79.7138C28.2051 79.7025 28.2122 79.6922 28.2202 79.6842C28.2282 79.6763 28.2322 79.6754 28.2286 79.6769C28.2267 79.6777 28.2243 79.6784 28.2223 79.6788C28.2201 79.6792 28.2221 79.6785 28.2303 79.6786L28.3352 69.6792C22.7232 69.6203 18.248 74.1505 18.1909 79.6683L28.1904 79.7717ZM22.4923 85.4234C25.6661 85.4234 28.1907 82.8283 28.1907 79.72L18.1907 79.72C18.1907 77.3737 20.0751 75.4234 22.4923 75.4234L22.4923 85.4234ZM126.108 70.6461C128.526 70.6461 130.41 72.5965 130.41 74.9427L120.41 74.9427C120.41 78.0509 122.935 80.6461 126.108 80.6461L126.108 70.6461ZM121.807 74.9427C121.807 72.5964 123.691 70.6461 126.108 70.6461L126.108 80.6461C129.282 80.6461 131.807 78.051 131.807 74.9427L121.807 74.9427ZM131.951 64.9018C126.339 64.8429 121.864 69.3731 121.807 74.891L131.806 74.9944C131.807 74.976 131.809 74.9637 131.81 74.956C131.812 74.9481 131.814 74.9418 131.816 74.9364C131.821 74.9251 131.828 74.9148 131.836 74.9069C131.844 74.899 131.848 74.8981 131.845 74.8996C131.843 74.9004 131.84 74.9011 131.838 74.9015C131.836 74.9019 131.838 74.9012 131.846 74.9013L131.951 64.9018ZM127.597 69.1981C127.597 66.8519 129.482 64.9015 131.899 64.9015L131.899 74.9015C135.073 74.9015 137.597 72.3064 137.597 69.1981L127.597 69.1981ZM131.899 73.4947C129.481 73.4947 127.597 71.5443 127.597 69.1981L137.597 69.1981C137.597 66.0899 135.073 63.4947 131.899 63.4947L131.899 73.4947ZM121.807 63.5059C121.864 68.9746 126.32 73.5535 131.951 73.4945L131.846 63.495C131.843 63.495 131.844 63.4947 131.849 63.4957C131.854 63.4966 131.857 63.4979 131.86 63.4988C131.863 63.5003 131.856 63.498 131.843 63.4855C131.831 63.4728 131.821 63.4576 131.815 63.4437C131.81 63.4329 131.807 63.4209 131.806 63.4014L121.807 63.5059ZM126.108 67.7502C123.691 67.7502 121.807 65.7999 121.807 63.4536L131.807 63.4536C131.807 60.3452 129.282 57.7502 126.108 57.7502L126.108 67.7502ZM130.41 63.4536C130.41 65.7998 128.526 67.7502 126.108 67.7502L126.108 57.7502C122.935 57.7502 120.41 60.3453 120.41 63.4536L130.41 63.4536ZM120.266 73.4945C125.877 73.5533 130.353 69.0232 130.41 63.5053L120.41 63.4019C120.41 63.4203 120.408 63.4326 120.407 63.4403C120.405 63.4482 120.403 63.4545 120.4 63.4599C120.396 63.4711 120.389 63.4814 120.38 63.4894C120.373 63.4973 120.368 63.4982 120.372 63.4967C120.374 63.4959 120.376 63.4952 120.378 63.4948C120.381 63.4944 120.379 63.4951 120.37 63.495L120.266 73.4945ZM124.62 69.1981C124.62 71.5443 122.735 73.4947 120.318 73.4947L120.318 63.4947C117.144 63.4947 114.62 66.0899 114.62 69.1981L124.62 69.1981ZM120.318 64.9015C122.735 64.9015 124.62 66.8519 124.62 69.1981L114.62 69.1981C114.62 72.3064 117.144 74.9015 120.318 74.9015L120.318 64.9015ZM130.41 74.891C130.353 69.3731 125.877 64.8429 120.266 64.9018L120.37 74.9013C120.379 74.9012 120.381 74.9019 120.378 74.9015C120.376 74.9011 120.374 74.9004 120.372 74.8996C120.369 74.8981 120.373 74.899 120.38 74.9069C120.389 74.9148 120.396 74.9251 120.4 74.9364C120.403 74.9417 120.405 74.9481 120.407 74.956C120.408 74.9637 120.41 74.976 120.41 74.9944L130.41 74.891ZM95.7306 77.856C92.2368 77.856 89.4503 80.715 89.4503 84.1456L99.4503 84.1456C99.4503 86.1695 97.8278 87.856 95.7306 87.856L95.7306 77.856ZM102.011 84.1456C102.011 80.715 99.2245 77.856 95.7306 77.856L95.7306 87.856C93.6335 87.856 92.0109 86.1695 92.0109 84.1456L102.011 84.1456ZM106.177 88.2901C103.92 88.3032 102.024 86.4711 102.011 84.1171L92.011 84.1742C92.0558 92.0196 98.4235 98.3354 106.235 98.2899L106.177 88.2901ZM112.486 94.5796C112.486 91.1489 109.7 88.29 106.206 88.29L106.206 98.29C104.109 98.29 102.486 96.6034 102.486 94.5796L112.486 94.5796ZM106.206 100.869C109.7 100.869 112.486 98.0102 112.486 94.5796L102.486 94.5796C102.486 92.5557 104.109 90.8692 106.206 90.8692L106.206 100.869ZM102.011 105.042C102.024 102.707 103.931 100.856 106.177 100.869L106.235 90.8692C98.413 90.8237 92.0558 97.1794 92.011 104.985L102.011 105.042ZM95.7306 111.303C99.2244 111.303 102.011 108.444 102.011 105.014L92.0109 105.014C92.0109 102.99 93.6335 101.303 95.7306 101.303L95.7306 111.303ZM89.4503 105.014C89.4503 108.444 92.2368 111.303 95.7306 111.303L95.7306 101.303C97.8278 101.303 99.4503 102.99 99.4503 105.014L89.4503 105.014ZM85.2847 100.869C87.5411 100.856 89.437 102.688 89.4504 105.042L99.4503 104.985C99.4055 97.1395 93.0377 90.8238 85.2264 90.8692L85.2847 100.869ZM78.9753 94.5796C78.9753 98.0102 81.7617 100.869 85.2555 100.869L85.2555 90.8692C87.3527 90.8692 88.9753 92.5557 88.9753 94.5796L78.9753 94.5796ZM85.2555 88.29C81.7617 88.29 78.9753 91.1489 78.9753 94.5796L88.9753 94.5796C88.9753 96.6034 87.3527 98.29 85.2555 98.29L85.2555 88.29ZM89.4504 84.117C89.437 86.4523 87.5306 88.3032 85.2847 88.2901L85.2264 98.2899C93.0482 98.3354 99.4055 91.9798 99.4503 84.1743L89.4504 84.117ZM62.2638 28.6054C62.2638 29.8672 61.2232 30.9676 59.8826 30.9676L59.8826 20.9676C55.6322 20.9676 52.2638 24.4127 52.2638 28.6054L62.2638 28.6054ZM38.4094 52.3044C51.5294 52.3788 62.1535 41.7735 62.2636 28.6474L52.264 28.5635C52.1995 36.2466 46.0053 42.3473 38.4661 42.3045L38.4094 52.3044ZM40.819 49.9422C40.819 51.204 39.7783 52.3044 38.4377 52.3044L38.4377 42.3044C34.1874 42.3044 30.819 45.7495 30.819 49.9422L40.819 49.9422ZM38.4377 47.58C39.7783 47.58 40.819 48.6804 40.819 49.9422L30.819 49.9422C30.819 54.1349 34.1874 57.58 38.4377 57.58L38.4377 47.58ZM62.2636 71.2371C62.1535 58.111 51.5294 47.5057 38.4094 47.5801L38.4661 57.58C46.0053 57.5372 52.1995 63.6379 52.264 71.321L62.2636 71.2371ZM59.8826 68.9169C61.2232 68.9169 62.2638 70.0173 62.2638 71.2791L52.2638 71.2791C52.2638 75.4717 55.6322 78.9169 59.8826 78.9169L59.8826 68.9169ZM57.5013 71.2791C57.5013 70.0173 58.542 68.9169 59.8826 68.9169L59.8826 78.9169C64.1329 78.9169 67.5013 75.4717 67.5013 71.2791L57.5013 71.2791ZM81.3558 47.5801C68.2357 47.5057 57.6116 58.111 57.5015 71.2371L67.5012 71.321C67.5656 63.6379 73.7599 57.5372 81.299 57.58L81.3558 47.5801ZM78.9462 49.9422C78.9462 48.6804 79.9868 47.58 81.3274 47.58L81.3274 57.58C85.5778 57.58 88.9462 54.1349 88.9462 49.9422L78.9462 49.9422ZM81.3274 52.3044C79.9868 52.3044 78.9462 51.204 78.9462 49.9422L88.9462 49.9422C88.9462 45.7496 85.5778 42.3044 81.3274 42.3044L81.3274 52.3044ZM57.5015 28.6475C57.6117 41.7391 68.2306 52.3788 81.3558 52.3044L81.299 42.3045C73.765 42.3473 67.5656 36.2224 67.5012 28.5633L57.5015 28.6475ZM59.8826 30.9676C58.542 30.9676 57.5013 29.8672 57.5013 28.6054L67.5013 28.6054C67.5013 24.4127 64.1329 20.9676 59.8826 20.9676L59.8826 30.9676Z" fill="white" mask="url(#path-1-inside-1_1_368)"/>
</svg>
